<svg xmlns="http://www.w3.org/2000/svg" width="17" height="17" id="restaurant"><g color="#fff" font-family="sans-serif" font-weight="400"><path fill="#fff" style="line-height:normal;text-indent:0;text-align:start;text-decoration-line:none;text-decoration-style:solid;text-decoration-color:#000;text-transform:none;block-progression:tb;isolation:auto;mix-blend-mode:normal" d="M5.56 1040.994a.5.5 0 0 0-.347.86l1.514 1.517a.5.5 0 1 0 .707-.707l-1.514-1.518a.5.5 0 0 0-.36-.152zm-1.425 1.412a.5.5 0 0 0-.35.858l2.203 2.203a.5.5 0 1 0 .707-.707l-2.203-2.203a.5.5 0 0 0-.357-.15zm4.828 1.998a.5.5 0 0 0-.348.858l5.178 5.191-.701.701-5.115-5.113a.5.5 0 1 0-.707.707l5.466 5.467a.5.5 0 0 0 .71 0l1.408-1.408a.5.5 0 0 0 0-.707l-5.532-5.543a.5.5 0 0 0-.36-.153z" overflow="visible" transform="translate(0 -1036.362)"></path><path fill="#fff" style="line-height:normal;text-indent:0;text-align:start;text-decoration-line:none;text-decoration-style:solid;text-decoration-color:#000;text-transform:none;block-progression:tb;isolation:auto;mix-blend-mode:normal" d="M7.281 1043.895a.5.5 0 0 0-.302.13l-6.67 5.963a.5.5 0 0 0-.012.012.98.98 0 0 0 .002 1.408l.722.684c.396.372 1.024.342 1.399-.03l6.865-6.802a.5.5 0 0 0-.705-.71l-6.863 6.804a.5.5 0 0 0-.002 0c-.014.013-.008.01-.008.01l-.697-.658 6.636-5.934a.5.5 0 0 0-.365-.877z" overflow="visible" transform="translate(0 -1036.362)"></path><path fill="#fff" fill-rule="evenodd" style="line-height:normal;text-indent:0;text-align:start;text-decoration-line:none;text-decoration-style:solid;text-decoration-color:#000;text-transform:none;block-progression:tb;isolation:auto;mix-blend-mode:normal" d="M15.586 1037.453c-2.284-.394-4.092.515-5.637 2.137l-3.62 3.803a.5.5 0 0 0 .019.707l1.732 1.64a.5.5 0 0 0 .705-.017l7.076-7.432a.5.5 0 0 0-.275-.837zm-1.348 1.094-5.832 6.123-1.008-.951 3.276-3.44c1.093-1.148 2.236-1.64 3.564-1.732z" overflow="visible" transform="translate(0 -1036.362)"></path><path fill="#fff" style="line-height:normal;text-indent:0;text-align:start;text-decoration-line:none;text-decoration-style:solid;text-decoration-color:#fff;text-transform:none;block-progression:tb;isolation:auto;mix-blend-mode:normal" d="M3.328 1037.361a.5.5 0 0 0-.348.86l2.473 2.474-2.121 2.121-2.473-2.474a.5.5 0 1 0-.707.707l2.473 2.474a1.01 1.01 0 0 0 1.414 0l2.121-2.12a1.01 1.01 0 0 0 0-1.415l-2.473-2.472a.5.5 0 0 0-.359-.153z" overflow="visible" transform="translate(0 -1036.362)"></path><path fill="#fff" fill-rule="evenodd" style="line-height:normal;text-indent:0;text-align:start;text-decoration-line:none;text-decoration-style:solid;text-decoration-color:#000;text-transform:none;block-progression:tb;isolation:auto;mix-blend-mode:normal" d="M1.92 1038.781a.5.5 0 0 0-.35.86l2.825 2.822a.5.5 0 1 0 .707-.707l-2.825-2.822a.5.5 0 0 0-.357-.153z" overflow="visible" transform="translate(0 -1036.362)"></path></g></svg>